<svg xmlns="http://www.w3.org/2000/svg" viewBox="0 0 29.1 28.3"><g id="Livello_2" data-name="Livello 2"><g id="Livello_1-2" data-name="Livello 1"><path d="M18.8,15.9h5.9c.1,0,.1-.1.1-.2s.1-.6.1-.9a6.2,6.2,0,0,0-.2-1.9,3.9,3.9,0,0,0-1-1.6,3.8,3.8,0,0,0-2.4-1.1H19.9a2.8,2.8,0,0,0-1.3.4,4.3,4.3,0,0,0-2,2.2,6.4,6.4,0,0,0-.2,4.5,4.1,4.1,0,0,0,1.9,2.2,3.7,3.7,0,0,0,2.1.6,6.7,6.7,0,0,0,2,0l1.5-.4c.1-.1.2-.2.2-.3V17.7h-.6a8.6,8.6,0,0,1-1.7.3,4.7,4.7,0,0,1-1.7-.3,1.8,1.8,0,0,1-1-.9l-.3-.9M7.2,17h4.5a.1.1,0,0,0,.1.1l.9,2.6c0,.2.1.2.2.2h2.5c.1,0,.2,0,.1-.1v-.2c-.7-1.8-1.3-3.6-2-5.5L11.1,7.5c0-.2,0-.2-.2-.2h-3c-.1,0-.2,0-.2.2a5,5,0,0,1-.2,1.2l-3,8.4a25.8,25.8,0,0,1-.8,2.6c-.1.2-.1.3.2.3H6c.2,0,.2-.1.3-.2h0a27.6,27.6,0,0,0,.8-2.7.1.1,0,0,0,.1-.1M29.1,4.5V23.9H29v.3a5.1,5.1,0,0,1-1.1,2.2A4.5,4.5,0,0,1,26,27.9l-1.2.4H4.3L3,27.9a5.2,5.2,0,0,1-1.7-1.3A5,5,0,0,1,.1,23.8H0V4.7H0a.4.4,0,0,0,.1-.3A4.9,4.9,0,0,1,2.8.6,3.4,3.4,0,0,1,4.5.1H24.8a4.9,4.9,0,0,1,3.4,2.2,3.9,3.9,0,0,1,.8,2c0,.1,0,.1.1.2" style="fill:#00005c"/><path d="M11,14.6a.4.4,0,0,1-.1-.3L9.8,11,9.5,9.7v.2a12.1,12.1,0,0,1-.5,1.8l-.9,2.8H11ZM7.2,17a.1.1,0,0,1-.1.1,27.6,27.6,0,0,1-.8,2.7h0c-.1.1-.1.2-.3.2H3.9c-.3,0-.3-.1-.2-.3a25.8,25.8,0,0,0,.8-2.6l3-8.4a5,5,0,0,0,.2-1.2c0-.2.1-.2.2-.2h3c.2,0,.2,0,.2.2l2.4,6.6c.7,1.9,1.3,3.7,2,5.5v.2c.1.1,0,.1-.1.1H12.9c-.1,0-.2,0-.2-.2l-.9-2.6a.1.1,0,0,1-.1-.1Z" style="fill:#99f"/><path d="M18.8,14.1h3.4l.2-.2a1.6,1.6,0,0,0-1.2-1.5h-.6a1.6,1.6,0,0,0-1.5.9,1.9,1.9,0,0,0-.2.7v.2m0,1.8.3.9a1.8,1.8,0,0,0,1,.9,4.7,4.7,0,0,0,1.7.3,8.6,8.6,0,0,0,1.7-.3h.6v1.8c0,.1-.1.2-.2.3l-1.5.4a6.7,6.7,0,0,1-2,0,3.7,3.7,0,0,1-2.1-.6,4.1,4.1,0,0,1-1.9-2.2,6.4,6.4,0,0,1,.2-4.5,4.3,4.3,0,0,1,2-2.2,2.8,2.8,0,0,1,1.3-.4h1.4a3.8,3.8,0,0,1,2.4,1.1,3.9,3.9,0,0,1,1,1.6,6.2,6.2,0,0,1,.2,1.9c0,.3-.1.6-.1.9s0,.2-.1.2H18.8Z" style="fill:#99f"/><path d="M11,14.6H7.9l.9-2.8a12.1,12.1,0,0,0,.5-1.8V9.7L9.8,11l1.1,3.3a.4.4,0,0,0,.1.3" style="fill:#00005c"/><path d="M18.8,14.1v-.2a1.9,1.9,0,0,1,.2-.7,1.6,1.6,0,0,1,1.5-.9h.6a1.6,1.6,0,0,1,1.2,1.5l-.2.2H18.8Z" style="fill:#00005c"/></g></g></svg>