<svg xmlns="http://www.w3.org/2000/svg" viewBox="0 0 23 23.8"><g id="Livello_2" data-name="Livello 2"><g id="Livello_1-2" data-name="Livello 1"><polygon points="11.5 0 0 3.9 1.8 18.6 11.5 23.8 21.2 18.5 23 3.9 11.5 0" style="fill:#b2b2b2"/><polygon points="21.9 4.7 11.4 1.2 11.4 22.5 20.2 17.8 21.9 4.7" style="fill:#a6120d"/><polygon points="1.3 4.8 2.8 17.9 11.4 22.5 11.4 1.2 1.3 4.8" style="fill:#de1c17"/><path d="M14,11.9,11.5,7,9.4,11.8H14Zm.3.7-2.9,1.3h-3L7,17.4H4.4L11.4,2Z" style="fill:#f2f2f2"/><polygon points="11.4 2 11.5 7 13.9 11.8 11.5 11.8 11.4 13.9 14.8 13.9 16.3 17.4 18.9 17.5 11.4 2" style="fill:#b2b2b2"/></g></g></svg>