<svg xmlns="http://www.w3.org/2000/svg" viewBox="0 0 21.4 30"><g id="Livello_2" data-name="Livello 2"><g id="Livello_1-2" data-name="Livello 1"><path d="M10.7,10.3H4c.1.9.1,1.8.2,2.7H9.5l-5,2.5a26.4,26.4,0,0,0,.2,2.8h6v4.1h-.2l-2.6-.7H7.7c0-.7-.1-1.4-.1-2.1H4.8c.1,1.4.2,2.7.4,4.1l5.5,1.5v2.8h.2l1.7-.5,2.6-.7,2.3-.6c.1,0,.1,0,.1-.2a3.7,3.7,0,0,0,.1-1.1,5.7,5.7,0,0,0,.1-1.3c0-.2.1-.4.1-.6s.1-.8.1-1.2a2.2,2.2,0,0,1,.1-.8,5.7,5.7,0,0,1,.1-1.3,3.4,3.4,0,0,1,.1-1c0-.5.1-1,.1-1.6s.1-1,.2-1.5.1-1,.1-1.6.1-.9.1-1.3v-.6c.1-.5.1-1,.2-1.4v-.7c.1-.4.1-.8.2-1.3V7.9c.1-.1,0-.1,0-.1H10.7ZM0,5.9H21.4c-.7,7.2-1.3,14.4-1.9,21.7h-.7L10.9,30h-.4L2,27.6c-.1,0-.1,0-.1-.1C1.3,20.3.6,13.1,0,5.9" style="fill:#006eba"/><path d="M13,2.4V0h3.8V1H14.1v.5h2.7V4H13V2.9h2.7V2.5H13Z" style="fill:#030303"/><polygon points="8.7 4 8.7 2.9 11.4 2.9 11.4 2.5 8.7 2.5 8.7 0 12.4 0 12.4 1 9.8 1 9.8 1.5 12.4 1.5 12.4 4 8.7 4" style="fill:#030303"/><polygon points="8.1 2.9 8.1 4 4.4 4 4.4 0 8.1 0 8.1 1 5.4 1 5.4 2.9 8.1 2.9" style="fill:#030303"/><path d="M10.7,25.3l5.2-1.4h.3c.2-2.7.5-5.4.7-8.1H12l4.9-2.5c.2-.1.3-.1.3-.3s.1-1.5.1-2.2a.4.4,0,0,0,.1-.3H10.7V7.8h8.5a.1.1,0,0,1,.1.1,2.8,2.8,0,0,0-.1.9c-.1.5-.1.9-.2,1.3v.7c-.1.4-.1.9-.2,1.4v.6c0,.4-.1.9-.1,1.3s-.1,1.1-.1,1.6-.1,1-.2,1.5-.1,1.1-.1,1.6-.1.7-.1,1a5.7,5.7,0,0,0-.1,1.3,2.2,2.2,0,0,0-.1.8c0,.4-.1.8-.1,1.2s-.1.4-.1.6a5.7,5.7,0,0,1-.1,1.3,3.7,3.7,0,0,1-.1,1.1c0,.1,0,.2-.1.2l-2.3.6-2.6.7-1.7.5h-.2Z" style="fill:#17a1db"/><path d="M10.7,18.4h3.2l-.3,3.4h-.1l-2.7.7h-.1V18.4" style="fill:#17a1db"/></g></g></svg>