<svg xmlns="http://www.w3.org/2000/svg" viewBox="0 0 18.7 28.1"><g id="Livello_2" data-name="Livello 2"><g id="Livello_1-2" data-name="Livello 1"><path d="M.1,3.4A4.6,4.6,0,0,1,3.4.2L9.3,0V9.4H4A4.7,4.7,0,0,1,.1,5.9V3.4" style="fill:#f24f1f"/><path d="M4.1,9.4H9.3v5.5a4.3,4.3,0,0,1-.1.5v3.4H3.8A4.6,4.6,0,0,1,.1,15.4V13l.2-.4A4.6,4.6,0,0,1,2.7,9.8l1.4-.4" style="fill:#a159fc"/><path d="M9.3,9.4V0l5.9.2a4.9,4.9,0,0,1,3.4,3.3,13.2,13.2,0,0,1-.1,2.7,5.5,5.5,0,0,1-2.9,2.9l-1.1.3H9.3Z" style="fill:#fc7061"/><path d="M3.9,18.8H9.3c0,1.7.1,3.4,0,5a4.7,4.7,0,0,1-3.1,4.1l-.5.2H3.4A4.6,4.6,0,0,1,.1,24.7V22.4c.1-.1.1-.3.2-.4a4.6,4.6,0,0,1,3.4-3.1h.3" style="fill:#0acf82"/><path d="M13.1,9.5h1.5a5,5,0,0,1,4,3.5h.1v2.2l-.2.4A4.8,4.8,0,0,1,14,18.8a4.6,4.6,0,0,1-4.4-3.2c-.1-.2-.1-.5-.2-.7V13.2a4.6,4.6,0,0,1,3.7-3.7" style="fill:#1abafc"/></g></g></svg>