<svg xmlns="http://www.w3.org/2000/svg" viewBox="0 0 22.1 22.1"><g id="Livello_2" data-name="Livello 2"><g id="Livello_1-2" data-name="Livello 1"><path d="M0,11.5v-1H.1A1.3,1.3,0,0,1,.4,10L6.9,3.5H7L9.4,5.8c.1.1.1.1.1.3a.6.6,0,0,0-.1.4c0,.2,0,.3.1.4a.9.9,0,0,0,.3.7,1.5,1.5,0,0,0,.6.5v6.1l-.5.4-.4.6a1.7,1.7,0,0,0-.1.7v.2c-.1.2,0,.3.1.4a1.3,1.3,0,0,0,.6.7l.4.2h.6l.8-.2a.8.8,0,0,0,.4-.4.9.9,0,0,0,.3-.9v-.3a1,1,0,0,0-.4-1c-.1-.2-.3-.2-.5-.4V8.3l2.3,2.3a1.7,1.7,0,0,0,.7,2,1.7,1.7,0,0,0,2-.2,1.6,1.6,0,0,0-1.6-2.8L12.7,7.1c.1-.2,0-.4,0-.6s0-.1,0-.2V6.1a1.6,1.6,0,0,0-.4-.7l-.8-.5h-.8c-.1.1-.2,0-.3-.1L8.1,2.6c0-.1-.1-.1-.1-.2l.2-.2L9.9.5a1.3,1.3,0,0,1,.6-.4h1.1l.5.4L21.6,10l.4.5h.1v.9H22c0,.1-.1.1-.1.2l-.3.4-8,8-1.4,1.4-.6.4a.1.1,0,0,0-.1.1h-.9c-.1-.1,0-.1-.1-.1l-.5-.4L.5,12.1a1,1,0,0,1-.4-.5H0" style="fill:#ed4f33"/></g></g></svg>