<svg xmlns="http://www.w3.org/2000/svg" viewBox="0 0 23.1 23.2"><g id="Livello_2" data-name="Livello 2"><g id="Livello_1-2" data-name="Livello 1"><path d="M23.1,11.6A11.6,11.6,0,1,1,11.6,0,11.6,11.6,0,0,1,23.1,11.6"/><path d="M14.5,19.4a5.4,5.4,0,0,0-.5-2.1l1.2-.3a4.4,4.4,0,0,0,3.4-3.3,7.6,7.6,0,0,0,0-2.6,3.5,3.5,0,0,0-1-2.7V8.1a4.3,4.3,0,0,0,0-2.5c-.1-.3-.2-.3-.5-.2a2.6,2.6,0,0,0-1.3.8l-.7.9a5.4,5.4,0,0,0-3-.6,5.1,5.1,0,0,0-3,.6l-.4-.6A3.9,3.9,0,0,0,7,5.4c-.2-.1-.3-.1-.4.2a3.6,3.6,0,0,0,0,2.5c.1.2,0,.3-.1.4A2.8,2.8,0,0,0,5.7,10a21.1,21.1,0,0,0-.2,2.5,4.4,4.4,0,0,0,3.1,4.4l1.6.5A3.8,3.8,0,0,0,9.7,19l-.3.2A2.8,2.8,0,0,1,6.2,18l-.3-.4A2.1,2.1,0,0,0,4,16.7H3.8c0,.1,0,.2.1.2l.5.5a9.1,9.1,0,0,1,1.1,1.6A3.3,3.3,0,0,0,8.9,21h.8V23l1.1.2h1.4l1.3-.2,1-.2V19.4" style="fill:#fff"/></g></g></svg>