<svg xmlns="http://www.w3.org/2000/svg" viewBox="0 0 21.6 30.3"><g id="Livello_2" data-name="Livello 2"><g id="Livello_1-2" data-name="Livello 1"><path d="M10.8,18.6v4.2h-.2l-1.7-.5L7.8,22c-.1-.7-.1-1.4-.2-2.1H4.9L5.2,24h.2l2.2.6,3.2.9v2.8H11l3-.8,3.5-.9c.3-.1.3-.1.3-.3a1.9,1.9,0,0,1,.1-.8v-.6c0-.3.1-.6.1-.8a2.2,2.2,0,0,1,.1-.8v-.5c0-.3.1-.6.1-.9v-.7c.1-.4.1-.8.2-1.2a6.6,6.6,0,0,1,.1-1.4v-.5a3.8,3.8,0,0,0,.1-1,1.3,1.3,0,0,1,.1-.6v-.8a2.2,2.2,0,0,0,.1-.8.7.7,0,0,1,.1-.5v-.8a2.5,2.5,0,0,0,.1-.8v-.6a2.2,2.2,0,0,0,.1-.8c0-.2.1-.5.1-.7s.1-.9.1-1.3.1-.7.1-1V7.8H10.8v2.6H4c.3,2.8.5,5.5.7,8.2h6.1m8.9,9.2-1.1.3L11,30.3h-.4L2,27.9H1.9v-.2l-.3-3.2-.3-3c-.1-1-.1-2-.2-3S1,17.1.9,16.5.8,14.9.7,14.2s-.1-1.4-.2-2S.4,11,.4,10.5.3,9.1.2,8.4.1,6.8,0,6H21.6c-.7,7.3-1.3,14.6-1.9,21.9" style="fill:#e54f26"/><path d="M15.5,4H14.2V2.1h0l-.9,1.4-.9-1.4a2.8,2.8,0,0,0-.1.9V4H11V0h1.3a13,13,0,0,0,1,1.5L14.2,0h1.3Z" style="fill:#030303"/><polygon points="2 0 3.3 0 3.3 1.4 4.7 1.4 4.7 0 6 0 6 4 4.7 4 4.7 2.7 3.3 2.7 3.3 4 2 4 2 0" style="fill:#030303"/><polygon points="10.4 1.3 9.1 1.3 9.1 4 7.8 4 7.8 1.3 6.6 1.3 6.6 0 10.4 0 10.4 1.3" style="fill:#030303"/><polygon points="17.4 2.7 19.3 2.7 19.3 4 16.1 4 16.1 0 17.4 0 17.4 2.7" style="fill:#030303"/><path d="M10.8,25.6,13,25l3.2-.9h.2c.2-2.7.4-5.4.7-8.1H10.8V13.1h6.5a24.5,24.5,0,0,0,.2-2.7H10.8V7.8h8.6v.6c0,.3-.1.7-.1,1s-.1.9-.1,1.3-.1.5-.1.7a2.2,2.2,0,0,1-.1.8v.6a2.5,2.5,0,0,1-.1.8,2.2,2.2,0,0,1-.1.8v.5a2.2,2.2,0,0,1-.1.8v.8a1.3,1.3,0,0,0-.1.6,3.8,3.8,0,0,1-.1,1v.5a6.6,6.6,0,0,0-.1,1.4c-.1.4-.1.8-.2,1.2v.7c0,.3-.1.6-.1.9v.5a2.2,2.2,0,0,0-.1.8c0,.2-.1.5-.1.8v.6a1.9,1.9,0,0,0-.1.8c0,.2,0,.2-.3.3l-3.5.9-3,.8h-.2Z" style="fill:#f56b3b"/><path d="M10.8,18.6H14c-.1,1.1-.1,2.3-.2,3.4h-.2l-2.6.7h-.2V18.6" style="fill:#f56b3b"/><path d="M10.8,13.1v2.7H7.4a24.5,24.5,0,0,1-.2-2.7h3.6" style="fill:#e54f26"/></g></g></svg>