<svg xmlns="http://www.w3.org/2000/svg" viewBox="0 0 29.1 28.3"><g id="Livello_2" data-name="Livello 2"><g id="Livello_1-2" data-name="Livello 1"><path d="M20.6,9.3A1.2,1.2,0,0,0,22,8.5a1.7,1.7,0,0,0,0-1.4,1.4,1.4,0,0,0-1-.8h-.6a1.4,1.4,0,0,0-1.2,1.1,1.1,1.1,0,0,0-.1.5,1.8,1.8,0,0,0,1,1.4h.5m-1.3,5.9v4.7c0,.1,0,.1.1.1h2.3c.2,0,.3,0,.3-.2V10.6H19.5c-.2,0-.2,0-.2.2v4.6M14.1,17h0l.9,2.7c.1.2.1.2.3.2h2.5c.1,0,.1-.1.1-.2h0c-.6-1.8-1.2-3.5-1.9-5.2s-1.6-4.7-2.5-7.1c0-.2-.1-.2-.2-.2h-3c-.2,0-.2,0-.2.2a5,5,0,0,1-.2,1.2C9,11,8.2,13.4,7.4,15.7s-.9,2.7-1.4,4,0,.3.2.3H8.3c.3,0,.3,0,.4-.2a27.6,27.6,0,0,1,.8-2.7.1.1,0,0,1,.1-.1Zm15-12.5V23.9a.1.1,0,0,1-.1.1,2.4,2.4,0,0,1-.2.8,4.6,4.6,0,0,1-1,1.8,4.4,4.4,0,0,1-1.5,1.2l-1.5.5H4.2a5.2,5.2,0,0,1-1.6-.6A5.8,5.8,0,0,1,.5,25.4a4.2,4.2,0,0,1-.4-1.6H0V4.7a.1.1,0,0,1,.1-.1V4.4A4.8,4.8,0,0,1,.7,2.6a4,4,0,0,1,1-1.2L2.4.8A4.8,4.8,0,0,1,4.5.1H24.7a5.5,5.5,0,0,1,1.8.6,4.1,4.1,0,0,1,1.4,1.2A4.4,4.4,0,0,1,29,4.4h.1" style="fill:#300"/><path d="M13.3,14.5l-1.5-5h-.1a12.4,12.4,0,0,1-.4,1.6c-.3,1-.7,2.1-1,3.2h3Zm.8,2.5H9.6a.1.1,0,0,0-.1.1,27.6,27.6,0,0,0-.8,2.7c-.1.2-.1.2-.4.2H6.2c-.2,0-.3-.1-.2-.3s.9-2.6,1.4-4S9,11,9.9,8.6a5,5,0,0,0,.2-1.2c0-.2,0-.2.2-.2h3c.1,0,.2,0,.2.2.9,2.4,1.7,4.7,2.5,7.1s1.3,3.4,1.9,5.2h0c0,.1,0,.2-.1.2H15.3c-.2,0-.2,0-.3-.2l-.9-2.7h0" style="fill:#f90"/><path d="M19.3,15.2V10.6c0-.2,0-.2.2-.2H22v9.2c0,.2-.1.2-.3.2H19.4c-.1,0-.1,0-.1-.1V15.2Z" style="fill:#f90"/><path d="M20.6,9.3h-.5a1.8,1.8,0,0,1-1-1.4,1.1,1.1,0,0,1,.1-.5,1.4,1.4,0,0,1,1.2-1.1H21a1.4,1.4,0,0,1,1,.8,1.7,1.7,0,0,1,0,1.4,1.2,1.2,0,0,1-1.4.8" style="fill:#f90"/><path d="M13.3,14.5h-3c.3-1.1.7-2.2,1-3.2a12.4,12.4,0,0,0,.4-1.6h.1l1.5,5" style="fill:#300"/></g></g></svg>