<svg xmlns="http://www.w3.org/2000/svg" viewBox="0 0 22.1 22.1"><g id="Livello_2" data-name="Livello 2"><g id="Livello_1-2" data-name="Livello 1"><path d="M5.8,18.5a4.4,4.4,0,0,0,.8,1.1,3.8,3.8,0,0,0,3.2.7,2.6,2.6,0,0,0,2.1-2,4.9,4.9,0,0,0,.1-1.2V10.2H10V17a.7.7,0,0,1-.1.5.9.9,0,0,1-.6,1A1.3,1.3,0,0,1,7.8,18l-.3-.5-1.7,1m7.4-.2a4.1,4.1,0,0,0,1.2,1.4,5.1,5.1,0,0,0,3.8.5c1.9-.4,2.5-2,2.1-3.7a3.1,3.1,0,0,0-1.5-1.7l-1.9-.9-.8-.5a.8.8,0,0,1-.2-.9q.2-.6.6-.6a1.2,1.2,0,0,1,1.4.5l.3.3,1.6-1a3.1,3.1,0,0,0-2.1-1.6H16.2a2.7,2.7,0,0,0-2.3,1.8,2.8,2.8,0,0,0,.7,2.9,4.5,4.5,0,0,0,1.7,1.1l1.5.7a.9.9,0,0,1,.5,1,.9.9,0,0,1-.7.8,2.2,2.2,0,0,1-2.2-.4l-.6-.7-1.6,1M0,0H22.1V22.1H0Z" style="fill:#f5de1f"/><path d="M13.2,18.3l1.6-1,.6.7a2.2,2.2,0,0,0,2.2.4.9.9,0,0,0,.7-.8.9.9,0,0,0-.5-1l-1.5-.7a4.5,4.5,0,0,1-1.7-1.1,2.8,2.8,0,0,1-.7-2.9,2.7,2.7,0,0,1,2.3-1.8h1.5a3.1,3.1,0,0,1,2.1,1.6l-1.6,1-.3-.3a1.2,1.2,0,0,0-1.4-.5.7.7,0,0,0-.6.6.8.8,0,0,0,.2.9l.8.5,1.9.9a3.1,3.1,0,0,1,1.5,1.7c.4,1.7-.2,3.3-2.1,3.7a5.1,5.1,0,0,1-3.8-.5,4.1,4.1,0,0,1-1.2-1.4"/><path d="M5.8,18.5l1.7-1,.3.5a1.3,1.3,0,0,0,1.5.5.9.9,0,0,0,.6-1A.7.7,0,0,0,10,17V10.2h2v6.9a4.9,4.9,0,0,1-.1,1.2,2.6,2.6,0,0,1-2.1,2,3.8,3.8,0,0,1-3.2-.7,4.4,4.4,0,0,1-.8-1.1"/></g></g></svg>