<svg xmlns="http://www.w3.org/2000/svg" viewBox="0 0 29.3 28.4"><g id="Livello_2" data-name="Livello 2"><g id="Livello_1-2" data-name="Livello 1"><path d="M22.5,11.4c-1.8-.6-3.8-.8-5.3.5a2.6,2.6,0,0,0,.3,4.1c.8.7,2,1,2.8,1.6a.9.9,0,0,1-.2,1.5,4.5,4.5,0,0,1-3.7-.9v2.1c1.8.9,4.3,1.1,5.9-.3a2.5,2.5,0,0,0,.1-3.8c-.9-.9-2.3-1.2-3.3-1.9a.8.8,0,0,1,.2-1.4,4.1,4.1,0,0,1,3.2.6ZM8.6,21V15.9c3.8.4,8-1.8,6.2-6.2S9.1,7.4,6.2,7.5c-.1.8-.1,13,0,13.5ZM14.7,0h9.5a5.1,5.1,0,0,1,5.1,5.1v18a5.2,5.2,0,0,1-3.8,5.1c-6.7.4-13.5,0-20.3.1A5.1,5.1,0,0,1,0,23.2V5.2A5.1,5.1,0,0,1,5.1,0h9.6" style="fill:#001f36"/><path d="M8.6,14.1l2-.2a2.8,2.8,0,0,0,1.2-.4,1.6,1.6,0,0,0,.8-1,2.9,2.9,0,0,0,0-1.6,2,2,0,0,0-1.3-1.5,6.2,6.2,0,0,0-2.7-.2Zm0,6.9H6.2c-.1-.5-.1-12.7,0-13.5H7.4a18.7,18.7,0,0,1,4.1,0,4.2,4.2,0,0,1,3.3,2.3,4.2,4.2,0,0,1-2,5.6,9.4,9.4,0,0,1-2.9.6H8.6V21" style="fill:#30a6fc"/><path d="M22.5,11.4v2.1l-.5-.2a4.1,4.1,0,0,0-1.8-.5h-.9a.8.8,0,0,0-.2,1.4l.8.5,1.3.6,1.2.8a2.5,2.5,0,0,1-.1,3.8,3.1,3.1,0,0,1-1.9.9,7.6,7.6,0,0,1-3-.1l-1-.5V18.2l.5.3a4.5,4.5,0,0,0,2.5.7h.7a.9.9,0,0,0,.2-1.5,5.3,5.3,0,0,0-1-.6,10.4,10.4,0,0,1-1.8-1,2.6,2.6,0,0,1-.3-4.1l.7-.5a6.6,6.6,0,0,1,4.6,0" style="fill:#30a6fc"/><path d="M8.6,14.1V9.2a6.2,6.2,0,0,1,2.7.2,2,2,0,0,1,1.3,1.5,2.9,2.9,0,0,1,0,1.6,1.6,1.6,0,0,1-.8,1,2.8,2.8,0,0,1-1.2.4l-2,.2" style="fill:#001f36"/></g></g></svg>