<svg xmlns="http://www.w3.org/2000/svg" viewBox="0 0 24.1 21.4"><g id="Livello_2" data-name="Livello 2"><g id="Livello_1-2" data-name="Livello 1"><path d="M7.1,9.5,8.5,7l-2.1.4a17.2,17.2,0,0,0,.7,2.1m8.5-2.4L17,9.5a17.2,17.2,0,0,0,.7-2.1,8.2,8.2,0,0,0-2.1-.3M12,4.1,10.6,5.8h2.9L12,4.1M6.3,14l2.2.4L7.1,11.9,6.3,14m5.8,3.3c.5-.5.9-1.1,1.4-1.7H10.6l1.5,1.7M17,11.9c-.5.8-.9,1.7-1.5,2.5l2.3-.4a18,18,0,0,0-.8-2.1m1.8,1.8h0l.7-.2a12.1,12.1,0,0,0,2-.9,4.3,4.3,0,0,0,1-.9,2.1,2.1,0,0,0,.4-.6.7.7,0,0,0,.1-.6.5.5,0,0,0-.2-.4,2.7,2.7,0,0,0-.7-.8,5.7,5.7,0,0,0-1.3-.8l-1.9-.8h-.2a24.9,24.9,0,0,1-1.1,2.9v.2a20.3,20.3,0,0,1,1.1,2.6.4.4,0,0,0,.1.3M18,6.4h0a1.1,1.1,0,0,0,.1-.5l.3-1.5V3.3c-.1-.4-.1-.7-.2-1l-.3-.8c-.2-.2-.3-.4-.6-.4h-.5l-.8.2-1.3.7A10.9,10.9,0,0,0,13,3.2c-.1.1-.2.1-.2.2h0A10.1,10.1,0,0,1,14.1,5l.7.9h1.7l1.5.3h0m-6.7-3a.1.1,0,0,0-.1-.1,9.5,9.5,0,0,0-2-1.5A3.4,3.4,0,0,0,8,1.2a1.8,1.8,0,0,0-1-.1.8.8,0,0,0-.8.4l-.3.6a3.4,3.4,0,0,0-.2,1.4,6.6,6.6,0,0,0,.1,1.4,4,4,0,0,0,.3,1.5h0l1.7-.3,1.4-.2h.1L11,3.7l.3-.3M18.1,15H18l-1.3.3-1.8.2h-.1l-2,2.4h.1l.5.5L15,19.8l1.3.5h.8l.7-.4a2.5,2.5,0,0,0,.4-.7,6.8,6.8,0,0,0,.2-1.4V16.5l-.3-1.4h0m-12,0H6c0,.3-.1.5-.1.8a5,5,0,0,0-.2,1.2v1.2c0,.3.1.6.1.8a2,2,0,0,0,.4.8,1,1,0,0,0,.5.4h.5l.8-.2a3.1,3.1,0,0,0,1.3-.6,7.5,7.5,0,0,0,2-1.5h0a15.6,15.6,0,0,1-1.6-2l-.4-.5H7.6l-1.2-.2H6.1m-.8-1.2a.4.4,0,0,0,.1-.3c.3-.9.7-1.8,1.1-2.7v-.2A24.9,24.9,0,0,1,5.4,7.7H5.3L4,8.1l-1.6.8-.9.8-.4.6a.9.9,0,0,0-.1.5l.2.5.7.8,1.2.8a8.4,8.4,0,0,0,2,.8h.2m8.9-6.9H9.8L8.9,8.4,7.7,10.6v.2a25.4,25.4,0,0,0,1.6,2.8l.5.9h4.5l.6-1,1.5-2.6h0v-.2c-.6-1-1.1-2-1.8-3a2.1,2.1,0,0,0-.4-.6M5,14.8H4.9a7,7,0,0,1-2-.8,8.7,8.7,0,0,1-1.8-1.1,4.4,4.4,0,0,1-.8-1.1,1.2,1.2,0,0,1-.3-.9A1.9,1.9,0,0,1,.1,10L.7,9,2,8A10.2,10.2,0,0,1,4.1,7L5,6.7h.1A.1.1,0,0,0,5,6.6L4.7,5a8.5,8.5,0,0,1,0-1.6,4.1,4.1,0,0,1,.2-1.6,3.1,3.1,0,0,1,.5-1A2.6,2.6,0,0,1,6.7,0,3.2,3.2,0,0,1,8.1.2,3.5,3.5,0,0,1,9.5.8a15.3,15.3,0,0,1,2.1,1.4l.4.5h.1l1.8-1.5L15.5.3l1-.3h1.1a1.8,1.8,0,0,1,1,.7,2.4,2.4,0,0,1,.5,1A5.3,5.3,0,0,1,19.4,3V4.2c0,.4-.1.8-.1,1.1L19,6.7h.1a8.5,8.5,0,0,1,2.2.9l1.5.9a2.8,2.8,0,0,1,.9,1,1.6,1.6,0,0,1,.3.9,1.4,1.4,0,0,1,0,.9,3.3,3.3,0,0,1-.6,1,5.2,5.2,0,0,1-1.1,1l-2.2,1.1-1,.3h0c0,.2.1.5.1.7s.1.7.2,1.1v1.2a8.6,8.6,0,0,1-.1,1.6,6.7,6.7,0,0,1-.6,1.2,2,2,0,0,1-1.2.8h-.7l-1.5-.3L14,20.3a9,9,0,0,1-1.9-1.5H12a9.5,9.5,0,0,1-1.9,1.6l-1.7.8-1,.2a2.5,2.5,0,0,1-1.2-.2,1.6,1.6,0,0,1-.8-.6,3.7,3.7,0,0,1-.5-1.1,5,5,0,0,1-.2-1.2,2,2,0,0,1,0-1.1,7.7,7.7,0,0,1,.2-1.5c0-.3.1-.6.1-.9H5" style="fill:#00d6ff"/><path d="M12,8.5a2.2,2.2,0,0,1,2.2,2.2A2.1,2.1,0,0,1,12,12.8a2.1,2.1,0,0,1-2.1-2.1A2.2,2.2,0,0,1,12,8.5" style="fill:#00d6ff"/></g></g></svg>