<svg xmlns="http://www.w3.org/2000/svg" viewBox="0 0 26.4 19.8"><g id="Livello_2" data-name="Livello 2"><g id="Livello_1-2" data-name="Livello 1"><path d="M19.7,13.2a2.2,2.2,0,0,0-1,1.7c.9-.3,1.1-.7,1-1.7m-8.4-2.1c-1.6.4-2.7,3.5-1.8,4.8a14.8,14.8,0,0,0,1.8-4.8M5.8,14.2a7.3,7.3,0,0,0-3,2.5,1.1,1.1,0,0,0-.3.7c-.1.7.3,1.1.9.9a3.4,3.4,0,0,0,2.4-4.1m9.3,1.5a1.2,1.2,0,0,0,1-1.3l-1,1.3H15a.1.1,0,0,0,.1-.1M5.2,13.6,2.1,11.3.7,9.9A2.9,2.9,0,0,1,.4,6.5,9.3,9.3,0,0,1,3.2,3.4,17.5,17.5,0,0,1,10.7.1a8.8,8.8,0,0,1,3.6.2,3.1,3.1,0,0,1,2.1,4.4,6.8,6.8,0,0,1-3.8,3.8,9.4,9.4,0,0,1-4.4.6,2.6,2.6,0,0,1-1.7-.9A5.6,5.6,0,0,1,6,7.4h.2l.2.2a2.6,2.6,0,0,0,2.2.7,7.6,7.6,0,0,0,5.9-2.8A3.5,3.5,0,0,0,15.1,4a1.5,1.5,0,0,0-1-2.1,5.3,5.3,0,0,0-2.8-.2A14.6,14.6,0,0,0,3.7,5.3,6.4,6.4,0,0,0,2.4,6.8a2.6,2.6,0,0,0,.4,3.3,5.7,5.7,0,0,0,1.1,1.1l1.2.9,1.1,1c1-.7,2.3-1.1,3.2-2.1a2.5,2.5,0,0,1,1.2-.8c.8-.4,1.3,0,1.4.9v.4c.9.2.9.2.7,1.1a26.8,26.8,0,0,1-.7,2.7h.2l.2-.4,2.4-5.4c.2-.6,1.1-.7,1.7-.3a3.7,3.7,0,0,0,.1,3.1A12,12,0,0,0,18.3,9a.8.8,0,0,1,.7-.7c.9-.2,1.1,0,.9.9a2.9,2.9,0,0,0,.5,2.7,6.3,6.3,0,0,1,3-.4,3,3,0,0,1,3,2.5A1.5,1.5,0,0,1,25,15.9l.2-.3a1.5,1.5,0,0,0,0-2.5,4.7,4.7,0,0,0-3.2-.8l-1.3.3a.8.8,0,0,1,.1.4,2.4,2.4,0,0,1-2.3,2.8c-.5.1-.8-.3-.7-.9A3.1,3.1,0,0,1,18.9,13c.3-.3.4-.5.2-.9a5.8,5.8,0,0,1-.5-1.4l-1.5,2.5c-.1,0,0,.2,0,.3a2.2,2.2,0,0,1-1.9,3.1c-.4.1-1,.3-1.2-.2s.2-.7.4-1L15.5,14a.7.7,0,0,0,.1-.9L15,11.5l-.3.7-2,3.9a1.8,1.8,0,0,1-.5.7.7.7,0,0,1-1.2-.4,4.1,4.1,0,0,1-.1-1.2c-.3.5-.5,1-.7,1.4s-.5.9-1.1.8-.8-.5-1-.9a5.1,5.1,0,0,1-.2-3c.1-.1.1-.3.2-.6l-1.4.8a4.8,4.8,0,0,1,.1,2.9,4.1,4.1,0,0,1-4.4,3.2A1.5,1.5,0,0,1,.9,18.3a2.5,2.5,0,0,1,.7-2.2c.9-.8,1.9-1.4,2.8-2.1l.8-.4" style="fill:#cf669c"/></g></g></svg>