<svg xmlns="http://www.w3.org/2000/svg" viewBox="0 0 29.1 35.9"><g id="Livello_2" data-name="Livello 2"><g id="Livello_1-2" data-name="Livello 1"><path d="M13.4,21.3l3.9-3.8L12.1,16c.5,1.8.9,3.5,1.3,5.3M14.6,4.9a22.4,22.4,0,0,0-3.8,3.7l5,1.5L14.6,4.9M8.9,2.8,10.1,8c1.3-1.3,2.7-2.3,3.9-3.7L8.9,2.8m3.7,18.5c-.4-1.8-.9-3.5-1.3-5.3L7.6,19.9l5,1.4m-1.9-5.7L5.5,14.1c.5,1.8.9,3.4,1.3,5.3l3.9-3.8m6.5-5.1,5.1,1.4c-.4-1.8-.8-3.4-1.3-5.2l-3.8,3.8m3-4.4L15.3,4.7c.5,1.8.9,3.4,1.3,5.2l3.6-3.8m-16,.6C6,7.2,7.6,7.8,9.4,8.2c-.5-1.8-.9-3.5-1.3-5.3L4.2,6.7M27.1,8,21.8,6.5c.5,1.8.9,3.6,1.3,5.4l4-3.9M5.2,12.8,9.2,9C7.4,8.5,5.7,7.9,3.9,7.5c.4,1.8.8,3.5,1.3,5.3M11,14.9c-.4-1.9-.8-3.6-1.3-5.3l-4,3.7L11,14.9m11.2-2.2-5.3-1.5c.5,1.9.9,3.6,1.3,5.4l4-3.9M2.2.9c.5,1.8.9,3.5,1.5,5.4L7.4,2.4,2.2.9M17.5,16.7l-1.4-5.4-3.7,4,5.1,1.4m-10.3,4h0V21c.4,1.5.8,3,1.1,4.6a.5.5,0,0,1,.2.4l3.7-4-1.4-.4-3.6-.9M10.5,9.4h0c.3,1.7.8,3.4,1.3,5.2l3.8-3.8-1.5-.4-3.6-1M1.9,0,4.4.7l17,4.9,5.9,1.7a.1.1,0,0,1,.1.1l.7.4a2.5,2.5,0,0,1-.4.7l-4.6,4.4L14,21.7,9.4,26.2l-.8.7c-.4.3-.6.2-.7-.3s-.5-2-.8-3L4.7,13.8C3.6,9.6,2.6,5.3,1.5,1.1c0-.2-.1-.4-.1-.6s.2-.5.5-.5"/><path d="M4.6,29.8l.7-.4a1.6,1.6,0,0,1,2.3,1.3v2.5a.5.5,0,0,1-.4.6.5.5,0,0,1-.5-.5V31.2c0-.7-.3-1.1-.8-1.1a1.2,1.2,0,0,0-1.3,1.1v1.7a.7.7,0,0,1-.1.5.5.5,0,0,1-.4.3c-.2,0-.4-.1-.4-.3a.7.7,0,0,1-.1-.5V28.4a1.7,1.7,0,0,1,.1-.7l.4-.2a.5.5,0,0,1,.4.3c0,.1.1.4.1.6v1.4"/><path d="M12.5,31a5.9,5.9,0,0,0,2.3,0c-.3-.8-.5-.9-1.1-.9s-.8.1-1.2.9m0,.9c.4.9,1,1.3,1.8,1.1l.8-.3a.9.9,0,0,1,.5.3.8.8,0,0,1-.2.4,2.5,2.5,0,0,1-2.5.3A1.9,1.9,0,0,1,11.6,32a4.9,4.9,0,0,1,.1-1.2A2,2,0,0,1,14,29.2a2.5,2.5,0,0,1,1.8,2.1c-.1.4-.2.6-.7.6H12.5"/><path d="M17.3,31.1h2c.3-.1.4-.3.2-.5a1.1,1.1,0,0,0-1.3-.5,1.3,1.3,0,0,0-.9,1m0,.8A1.6,1.6,0,0,0,19.1,33l.9-.2c.1-.1.3.1.4.2a.8.8,0,0,1-.2.4,2.3,2.3,0,0,1-2.5.3,2,2,0,0,1-1.3-1.8,3.2,3.2,0,0,1,.3-1.7,2,2,0,0,1,2.3-.9,2.1,2.1,0,0,1,1.6,2c0,.4-.2.6-.7.6H17.3"/><path d="M27.4,29.2l1.1.3c.1,0,.2.2.3.4s-.3.3-.5.3h-.8a1.1,1.1,0,0,0-.8.2c-.3.1-.3.4,0,.6l.9.3a1.9,1.9,0,0,1,.9.4c.9.7.7,1.3-.1,1.9a2.4,2.4,0,0,1-2.7-.1c-.1,0-.2-.3-.1-.4s.2-.2.4-.2h.6a1.7,1.7,0,0,0,1,0c.2,0,.3-.2.4-.4l-.4-.4-.9-.2c-.8-.3-1.2-.7-1.1-1.4s.7-1.2,1.6-1.3h.2"/><path d="M24.6,32.2v2a3.6,3.6,0,0,1-.2,1,.9.9,0,0,1-1.8.1L23,35c.6,0,.6-.3.6-.7v-4a1.3,1.3,0,0,1,.1-.6c0-.2.3-.3.4-.4a.4.4,0,0,1,.4.4,1.3,1.3,0,0,1,.1.6v1.9"/><path d="M0,30a15.8,15.8,0,0,0,1.2-1.5h.3c.1.5.3.9.9.8l.4.3-.3.4H2.4c-.3.1-.6,0-.7.2a1.9,1.9,0,0,0-.1.8v1.3c0,.5.1.6.6.6s.6-.1.7.3-.3.4-.6.5A1.1,1.1,0,0,1,.7,32.6V30.8c0-.4-.1-.7-.6-.7A.1.1,0,0,1,0,30"/><path d="M9.8,29.8a1.8,1.8,0,0,1,.7-.5h.7c.1,0,.2.2.2.3a.8.8,0,0,1-.2.4h-.5a1.2,1.2,0,0,0-1,1.3v1.5c0,.2,0,.5-.1.6l-.5.2c-.1,0-.2-.2-.2-.3a.7.7,0,0,1-.1-.5V30.2a1.3,1.3,0,0,1,.1-.6c.1-.3.4-.4.7-.1l.2.3"/><path d="M21.9,33.8a.6.6,0,0,1-.6-.6c.1-.3.2-.5.6-.5s.5.2.6.5a.6.6,0,0,1-.6.6"/><path d="M24.1,28.6a.5.5,0,0,1-.5-.5.5.5,0,1,1,.5.5"/></g></g></svg>