<svg xmlns="http://www.w3.org/2000/svg" viewBox="0 0 29.1 28.3"><g id="Livello_2" data-name="Livello 2"><g id="Livello_1-2" data-name="Livello 1"><path d="M15.6,20c0-.1-.1-.2-.1-.3-1.2-2-2.5-4-3.7-6.1h-.1v-.2l3.6-5.8c0-.1.1-.1,0-.2H12.4l-.6,1.3L10,12h0v-.2L9,10.3,7.5,7.5c0-.2-.1-.2-.2-.2H4.5c-.2,0-.2,0-.1.1h0l3.6,6v.2H8L5.4,18,4.3,19.8a.1.1,0,0,0,0,.2h3l2.4-4.5v-.2c0,.1,0,.1.1.2s1.6,2.9,2.3,4.4l.3.2h3.1Zm6.5-9.8H20.4a5.2,5.2,0,0,0-2.1.7,4.6,4.6,0,0,0-2.4,3.6,4.5,4.5,0,0,0,.1,2.3,3.9,3.9,0,0,0,2.2,2.8,5,5,0,0,0,2.4.6,5.5,5.5,0,0,0,1.8-.1,9.8,9.8,0,0,0,2.3-.6c.1-.1.2-.1.2-.3a19.3,19.3,0,0,1-.1-2.4V6.4c0-.2,0-.2-.2-.2H22.3c-.2,0-.2,0-.2.2h0v3.7ZM0,23.7V4.7a.1.1,0,0,1,.1-.1V4.3A4.9,4.9,0,0,1,2.8.6,3.4,3.4,0,0,1,4.5.1H24.8a4.9,4.9,0,0,1,3.4,2.2A4.9,4.9,0,0,1,29,4.4h.1V23.9a.1.1,0,0,0-.1.1,6.4,6.4,0,0,1-.6,1.8,5.1,5.1,0,0,1-2.1,2l-1.5.5H4.3A5.3,5.3,0,0,1,1.7,27,4.7,4.7,0,0,1,.1,23.8H0" style="fill:#470038"/><path d="M22.1,12.5h-.5a3.5,3.5,0,0,0-2,.5,2.2,2.2,0,0,0-.9,1.4,3,3,0,0,0,.1,2.1,2.1,2.1,0,0,0,.8,1.1,4.2,4.2,0,0,0,1.2.4h1.3Zm0-2.3V6.5h0c0-.2,0-.2.2-.2h2.3c.2,0,.2,0,.2.2V16.8a19.3,19.3,0,0,0,.1,2.4c0,.2-.1.2-.2.3a9.8,9.8,0,0,1-2.3.6,5.5,5.5,0,0,1-1.8.1,5,5,0,0,1-2.4-.6A3.9,3.9,0,0,1,16,16.8a4.5,4.5,0,0,1-.1-2.3,4.6,4.6,0,0,1,2.4-3.6,5.2,5.2,0,0,1,2.1-.7h1.7" style="fill:#ff61f5"/><path d="M15.6,20H12.5l-.3-.2c-.7-1.5-1.5-3-2.3-4.4s-.1-.1-.1-.2v.2L7.3,19.9h-3a.1.1,0,0,1,0-.2L5.4,18,8,13.8H8v-.2l-3.6-6h0c-.1-.1-.1-.1.1-.1H7.3c.1,0,.2,0,.2.2L9,10.3l.9,1.6v.2h0l1.8-3.3.6-1.3h2.9c.1.1,0,.1,0,.2l-3.6,5.8v.2h.1c1.2,2.1,2.5,4.1,3.7,6.1,0,.1.1.2.1.3" style="fill:#ff61f5"/><path d="M22.1,12.5v5.3H20.8a4.2,4.2,0,0,1-1.2-.4,2.1,2.1,0,0,1-.8-1.1,3,3,0,0,1-.1-2.1,2.2,2.2,0,0,1,.9-1.4,3.5,3.5,0,0,1,2-.5h.5" style="fill:#470038"/></g></g></svg>